<svg width="236" height="96" viewBox="0 0 236 96" fill="none" xmlns="http://www.w3.org/2000/svg">
<path d="M51 44L32 25L13 44" stroke="#2563EB" stroke-width="14" stroke-linecap="round" stroke-linejoin="round"/>
<path d="M51 71L32 52L13 71" stroke="#2563EB" stroke-width="14" stroke-linecap="round" stroke-linejoin="round"/>
<path d="M117.632 51.568C117.632 52.592 117.568 53.6587 117.44 54.768H92.672C92.8427 56.9867 93.5467 58.6933 94.784 59.888C96.064 61.04 97.6213 61.616 99.456 61.616C102.187 61.616 104.085 60.464 105.152 58.16H116.8C116.203 60.5067 115.115 62.6187 113.536 64.496C112 66.3733 110.059 67.8453 107.712 68.912C105.365 69.9787 102.741 70.512 99.84 70.512C96.3413 70.512 93.2267 69.7653 90.496 68.272C87.7653 66.7787 85.632 64.6453 84.096 61.872C82.56 59.0987 81.792 55.856 81.792 52.144C81.792 48.432 82.5387 45.1893 84.032 42.416C85.568 39.6427 87.7013 37.5093 90.432 36.016C93.1627 34.5227 96.2987 33.776 99.84 33.776C103.296 33.776 106.368 34.5013 109.056 35.952C111.744 37.4027 113.835 39.472 115.328 42.16C116.864 44.848 117.632 47.984 117.632 51.568ZM106.432 48.688C106.432 46.8107 105.792 45.3173 104.512 44.208C103.232 43.0987 101.632 42.544 99.712 42.544C97.8773 42.544 96.32 43.0773 95.04 44.144C93.8027 45.2107 93.0347 46.7253 92.736 48.688H106.432ZM121.23 52.08C121.23 48.4107 121.912 45.1893 123.278 42.416C124.686 39.6427 126.584 37.5093 128.974 36.016C131.363 34.5227 134.03 33.776 136.974 33.776C139.32 33.776 141.454 34.2667 143.374 35.248C145.336 36.2293 146.872 37.552 147.982 39.216V22.64H158.926V70H147.982V64.88C146.958 66.5867 145.486 67.952 143.566 68.976C141.688 70 139.491 70.512 136.974 70.512C134.03 70.512 131.363 69.7653 128.974 68.272C126.584 66.736 124.686 64.5813 123.278 61.808C121.912 58.992 121.23 55.7493 121.23 52.08ZM147.982 52.144C147.982 49.4133 147.214 47.2587 145.678 45.68C144.184 44.1013 142.35 43.312 140.174 43.312C137.998 43.312 136.142 44.1013 134.606 45.68C133.112 47.216 132.366 49.3493 132.366 52.08C132.366 54.8107 133.112 56.9867 134.606 58.608C136.142 60.1867 137.998 60.976 140.174 60.976C142.35 60.976 144.184 60.1867 145.678 58.608C147.214 57.0293 147.982 54.8747 147.982 52.144ZM177.083 60.976H192.571V70H164.859V61.296L179.707 43.312H164.987V34.288H192.251V42.992L177.083 60.976ZM235.073 34.288L212.673 86.96H200.897L209.089 68.784L194.561 34.288H206.785L215.041 56.624L223.233 34.288H235.073Z" fill="#09090B"/>
</svg>
